<?xml version="1.0" encoding="iso-8859-1"?>
<!-- Uploaded to: SVG Repo, www.svgrepo.com, Generator: SVG Repo Mixer Tools -->
<svg height="800px" width="800px" version="1.1" id="Layer_1" xmlns="http://www.w3.org/2000/svg" xmlns:xlink="http://www.w3.org/1999/xlink" 
	 viewBox="0 0 512 512" xml:space="preserve">
<path style="fill:#D9D9DB;" d="M304.141,8.321c0,27.084-21.956,49.04-49.04,49.04s-49.041-21.956-49.041-49.04H304.141z"/>
<circle style="fill:#EE569F;" cx="255.097" cy="265.237" r="136.827"/>
<path style="fill:#EFB6BB;" d="M165.936,291.892c2.341,17.843,6.985,34.439,13.45,49.057c14.618,6.464,31.213,11.109,49.057,13.45
	c-3.464-15.684-6.032-34.457-7.391-55.115C200.393,297.924,181.62,295.356,165.936,291.892z"/>
<g>
	<path style="fill:#F09EA0;" d="M330.816,189.519c6.464,14.618,11.109,31.213,13.45,49.057c29.18,6.445,47.662,15.998,47.662,26.659
		C391.928,233.635,367.65,205.807,330.816,189.519z"/>
	<path style="fill:#F09EA0;" d="M255.1,300.38c-11.755,0-23.163-0.382-34.049-1.097c1.359,20.658,3.927,39.431,7.391,55.115
		c8.623,1.131,17.535,1.73,26.659,1.73c9.124,0,18.035-0.599,26.659-1.73c3.464-15.684,6.032-34.457,7.391-55.115
		C278.263,300,266.855,300.38,255.1,300.38z"/>
</g>
<path style="fill:#EFB6BB;" d="M330.816,189.519c36.835,16.288,61.112,44.116,61.112,75.714
	c0-75.567-61.259-136.827-136.827-136.827C286.7,128.407,314.528,152.684,330.816,189.519z"/>
<path style="fill:#F09EA0;" d="M344.264,291.892c-2.341,17.843-6.985,34.439-13.45,49.057
	c36.835-16.288,61.112-44.116,61.112-75.714C391.928,275.894,373.445,285.446,344.264,291.892z"/>
<g>
	<path style="fill:#EFB6BB;" d="M344.264,238.576c1.131,8.624,1.73,17.535,1.73,26.659s-0.599,18.035-1.73,26.658
		c29.18-6.445,47.662-15.997,47.662-26.658C391.928,254.572,373.445,245.021,344.264,238.576z"/>
	<path style="fill:#EFB6BB;" d="M289.15,299.283c-1.359,20.658-3.927,39.431-7.391,55.115c17.843-2.341,34.439-6.985,49.057-13.45
		c6.464-14.618,11.109-31.213,13.45-49.057C328.581,295.356,309.809,297.924,289.15,299.283z"/>
</g>
<g>
	<path style="fill:#F09EA0;" d="M290.247,265.233c0,11.755-0.382,23.163-1.097,34.049c20.659-1.359,39.431-3.927,55.115-7.392
		c1.131-8.623,1.73-17.535,1.73-26.658s-0.599-18.035-1.73-26.659c-15.684-3.464-34.457-6.032-55.115-7.391
		C289.865,242.07,290.247,253.479,290.247,265.233z"/>
	<path style="fill:#F09EA0;" d="M219.954,265.233c0-11.755,0.382-23.163,1.097-34.049c-20.659,1.359-39.431,3.927-55.115,7.391
		c-1.131,8.624-1.73,17.535-1.73,26.659s0.599,18.035,1.73,26.658c15.684,3.465,34.457,6.032,55.115,7.392
		C220.335,288.397,219.954,276.988,219.954,265.233z"/>
</g>
<g>
	<path style="fill:#EFB6BB;" d="M289.15,231.184c-10.886-0.716-22.294-1.097-34.049-1.097c-11.755,0-23.163,0.382-34.049,1.097
		c-0.716,10.886-1.097,22.294-1.097,34.049c0,11.755,0.382,23.163,1.097,34.049c10.886,0.716,22.294,1.097,34.049,1.097
		c11.755,0,23.163-0.382,34.049-1.097c0.716-10.886,1.097-22.294,1.097-34.049C290.247,253.479,289.865,242.07,289.15,231.184z"/>
	<path style="fill:#EFB6BB;" d="M344.264,238.576c-2.341-17.843-6.985-34.439-13.45-49.057
		c-14.618-6.464-31.213-11.109-49.057-13.45c3.464,15.684,6.032,34.457,7.391,55.115
		C309.809,232.544,328.581,235.111,344.264,238.576z"/>
</g>
<path style="fill:#EF8990;" d="M228.443,176.069c-17.843,2.341-34.439,6.985-49.057,13.45c-6.464,14.618-11.109,31.213-13.45,49.057
	c15.684-3.464,34.457-6.032,55.115-7.391C222.41,210.526,224.978,191.753,228.443,176.069z"/>
<g>
	<path style="fill:#F09EA0;" d="M255.1,230.087c11.755,0,23.163,0.382,34.049,1.097c-1.359-20.658-3.927-39.431-7.391-55.115
		c-8.623-1.131-17.535-1.73-26.659-1.73c-9.124,0-18.035,0.599-26.659,1.73c-3.464,15.684-6.032,34.457-7.391,55.115
		C231.937,230.468,243.345,230.087,255.1,230.087z"/>
	<path style="fill:#F09EA0;" d="M165.936,238.576c2.341-17.843,6.985-34.439,13.45-49.057
		c-36.835,16.288-61.112,44.116-61.112,75.714C118.274,254.572,136.757,245.021,165.936,238.576z"/>
	<path style="fill:#F09EA0;" d="M330.816,340.949c-14.618,6.464-31.213,11.109-49.057,13.45
		c-6.445,29.18-15.997,47.662-26.659,47.662C286.7,402.061,314.528,377.784,330.816,340.949z"/>
</g>
<g>
	<path style="fill:#EFB6BB;" d="M281.759,354.399c-8.623,1.131-17.535,1.73-26.659,1.73s-18.035-0.599-26.659-1.73
		c6.445,29.18,15.997,47.662,26.659,47.662S275.313,383.578,281.759,354.399z"/>
	<path style="fill:#EFB6BB;" d="M179.386,340.949c-36.835-16.288-61.112-44.116-61.112-75.714
		c0,75.568,61.259,136.827,136.827,136.827C223.502,402.061,195.673,377.784,179.386,340.949z"/>
</g>
<path style="fill:#F09EA0;" d="M228.443,354.399c-17.843-2.341-34.439-6.985-49.057-13.45
	c16.288,36.835,44.116,61.112,75.714,61.112C244.439,402.061,234.888,383.578,228.443,354.399z"/>
<path style="fill:#EFB6BB;" d="M330.816,340.949c-16.288,36.835-44.116,61.112-75.714,61.112
	c75.568,0,136.827-61.26,136.827-136.827C391.928,296.833,367.65,324.661,330.816,340.949z"/>
<path style="fill:#F09EA0;" d="M281.759,176.069c17.843,2.341,34.439,6.985,49.057,13.45
	c-16.288-36.835-44.116-61.112-75.715-61.112C265.761,128.407,275.313,146.89,281.759,176.069z"/>
<path style="fill:#EF8990;" d="M228.443,176.069c8.623-1.131,17.535-1.73,26.659-1.73c9.124,0,18.035,0.599,26.659,1.73
	c-6.445-29.18-15.997-47.662-26.659-47.662S234.888,146.89,228.443,176.069z"/>
<path style="fill:#F09EA0;" d="M179.386,189.519c14.618-6.464,31.213-11.109,49.057-13.45c6.445-29.18,15.997-47.662,26.659-47.662
	C223.502,128.407,195.673,152.684,179.386,189.519z"/>
<g>
	<path style="fill:#EF8990;" d="M165.936,291.892c-1.131-8.623-1.73-17.535-1.73-26.658s0.599-18.035,1.73-26.659
		c-29.18,6.445-47.662,15.998-47.662,26.659C118.274,275.894,136.757,285.446,165.936,291.892z"/>
	<path style="fill:#EF8990;" d="M179.386,189.519c16.288-36.835,44.116-61.112,75.715-61.112
		c-75.568,0-136.827,61.259-136.827,136.827C118.274,233.635,142.55,205.807,179.386,189.519z"/>
</g>
<path style="fill:#F09EA0;" d="M179.386,340.949c-6.464-14.618-11.109-31.213-13.45-49.057
	c-29.18-6.445-47.662-15.997-47.662-26.658C118.274,296.833,142.551,324.661,179.386,340.949z"/>
<path d="M263.541,120.309V65.284c12.261-1.813,23.744-7.688,32.448-16.504c8.674-8.785,14.387-20.304,16.054-32.541
	C312.911,9.854,313.266,0,304.13,0h-98.057c-4.125,0-7.744,3.11-8.349,7.194c-0.267,1.803-0.054,3.762,0.077,5.569
	c0.421,5.831,1.514,11.651,3.445,17.175c2.446,6.996,6.37,13.597,12.187,18.3c3.176,2.567,6.821,4.603,10.93,2.86
	c3.825-1.622,5.925-5.946,4.851-9.955c-0.603-2.249-2.044-3.876-3.943-5.14c-2.023-1.346-3.676-3.147-5.002-5.174
	c-2.721-4.155-4.179-9.089-5.006-13.947h79.547c-3.803,17.911-19.787,31.391-38.081,32.115c-2.57,0.101-4.844,0.216-6.937,1.913
	c-1.965,1.592-3.129,4.03-3.129,6.56v62.853c-15.048,0.867-29.948,4.069-44.008,9.507c-7,2.708-13.787,5.962-20.282,9.726
	c-4.783,2.771-11.323,5.888-10.068,12.562c1.082,5.751,7.81,8.607,12.761,5.591c1.995-1.215,3.946-2.495,5.97-3.664
	c-7.218,8.891-13.173,18.806-18.005,29.176c-10.357,4.827-20.256,10.771-29.14,17.976c2.232-3.873,4.666-7.628,7.289-11.246
	c2.4-3.31,6.002-6.468,7.771-10.15c3.2-6.658-3.509-14.08-10.456-11.601c-3.441,1.228-5.682,4.909-7.835,7.664
	c-2.491,3.186-4.847,6.476-7.063,9.859c-4.372,6.677-8.193,13.714-11.408,21.019c-6.485,14.732-10.497,30.528-11.827,46.568
	c-1.167,14.079-0.275,28.332,2.656,42.153c2.702,12.739,7.142,25.098,13.153,36.649c5.91,11.357,13.327,21.921,21.988,31.348
	c8.643,9.407,18.518,17.678,29.302,24.527c10.91,6.928,22.741,12.392,35.097,16.185c12.751,3.914,26.036,6.034,39.37,6.321
	c13.477,0.29,26.986-1.28,40.026-4.702c12.493-3.279,24.533-8.249,35.709-14.721c11.107-6.433,21.352-14.339,30.401-23.442
	c9.015-9.069,16.835-19.32,23.187-30.419c6.444-11.259,11.367-23.38,14.58-35.948c3.332-13.031,4.818-26.518,4.453-39.962
	c-0.363-13.416-2.586-26.771-6.62-39.572c-3.911-12.409-9.511-24.275-16.586-35.193c-6.998-10.797-15.426-20.66-24.996-29.26
	c-9.632-8.656-20.416-16.026-31.988-21.841c-11.693-5.875-24.181-10.15-37.023-12.665
	C276.625,121.506,270.096,120.686,263.541,120.309z M376.157,292.515c-6.966,12.637-17.851,22.749-29.847,30.562
	c2.337-7.932,4.149-16.053,5.455-24.218c8.656-2.123,17.307-4.684,25.446-8.349C376.871,291.183,376.522,291.854,376.157,292.515z
	 M312.181,357.568c-8.12,12.181-18.685,23.164-31.864,29.836c3.662-8.143,6.222-16.791,8.349-25.447
	c8.165-1.309,16.286-3.116,24.218-5.454C312.652,356.861,312.417,357.214,312.181,357.568
	C311.905,357.982,312.417,357.214,312.181,357.568z M227.887,386.355c-12.641-6.961-22.76-17.856-30.571-29.852
	c7.933,2.337,16.054,4.146,24.219,5.454c2.119,8.654,4.683,17.31,8.348,25.447C229.212,387.065,228.545,386.717,227.887,386.355
	C227.464,386.122,228.23,386.544,227.887,386.355z M162.82,322.371c-12.179-8.121-23.16-18.682-29.83-31.86
	c8.14,3.665,16.791,6.227,25.446,8.349c1.307,8.165,3.117,16.286,5.455,24.218C163.531,322.843,163.174,322.607,162.82,322.371
	C162.408,322.096,163.174,322.607,162.82,322.371z M134.043,238.071c6.963-12.635,17.85-22.756,29.847-30.563
	c-2.336,7.933-4.148,16.053-5.455,24.218c-8.657,2.128-17.301,4.688-25.446,8.349C133.33,239.402,133.679,238.731,134.043,238.071z
	 M198.046,172.977c8.12-12.168,18.672-23.126,31.838-29.796c-3.651,8.151-6.226,16.786-8.349,25.447
	c-8.165,1.302-16.287,3.119-24.219,5.455C197.558,173.711,197.801,173.344,198.046,172.977
	C198.311,172.579,197.801,173.344,198.046,172.977z M301.806,159.764c4.108,4.431,7.784,9.257,11.079,14.317
	c-7.932-2.339-16.053-4.148-24.218-5.455c-2.123-8.659-4.695-17.3-8.349-25.447C288.442,147.297,295.629,153.104,301.806,159.764
	C302.086,160.066,301.386,159.312,301.806,159.764z M347.369,208.207c12.186,8.119,23.168,18.687,29.843,31.867
	c-8.148-3.651-16.786-6.231-25.446-8.348c-1.305-8.165-3.117-16.286-5.455-24.218C346.666,207.74,347.018,207.973,347.369,208.207
	C347.787,208.485,347.018,207.973,347.369,208.207z M383.454,265.292c0,1.051-1.19,2.18-1.856,2.842
	c-2.254,2.241-5.112,3.898-7.921,5.334c-6.285,3.213-13.045,5.476-19.826,7.38c0.751-10.35,0.748-20.763,0-31.113
	c6.912,1.953,13.809,4.252,20.199,7.572c2.68,1.392,5.392,2.999,7.548,5.143C382.267,263.117,383.454,264.239,383.454,265.292z
	 M321.471,335.726c-9.41,3.696-19.167,6.467-29.084,8.415c2.142-12.226,3.604-24.558,4.637-36.925
	c12.364-1.009,24.706-2.479,36.925-4.637c-2.154,10.943-5.313,21.663-9.6,31.963C323.392,334.941,322.438,335.347,321.471,335.726
	C319.846,336.365,321.884,335.564,321.471,335.726z M268.584,347.252c-11.025,0.75-22.121,0.586-33.116-0.511
	c-2.495-12.693-4.141-25.558-5.257-38.443c16.575,0.77,33.203,0.77,49.778,0c-1.112,12.904-2.869,25.715-5.256,38.443
	C272.687,346.945,270.637,347.114,268.584,347.252C268.078,347.287,270.323,347.135,268.584,347.252z M217.418,344.068
	c-10.805-2.143-21.399-5.291-31.568-9.527c-4.287-10.3-7.446-21.019-9.6-31.963c12.221,2.148,24.56,3.626,36.925,4.637
	c1.002,12.365,2.486,24.706,4.638,36.925C217.683,344.115,217.55,344.094,217.418,344.068z M153.271,279.954
	c-4.996-1.514-9.949-3.249-14.678-5.471c-3.824-1.797-8.186-3.948-10.885-7.332c-1.138-1.427-1.138-2.289,0-3.716
	c2.737-3.432,7.171-5.6,11.055-7.412c5.647-2.635,11.597-4.594,17.586-6.285c-0.747,10.35-0.748,20.762,0,31.113
	C155.321,280.559,154.294,280.263,153.271,279.954C153.126,279.91,154.178,280.227,153.271,279.954z M188.742,194.854
	c9.405-3.694,19.16-6.465,29.073-8.411c-2.16,12.22-3.614,24.56-4.638,36.925c-12.364,1.002-24.707,2.483-36.925,4.638
	c2.148-10.943,5.312-21.665,9.6-31.963C186.814,195.643,187.771,195.235,188.742,194.854
	C190.359,194.219,188.32,195.02,188.742,194.854z M274.734,183.841c1.044,6.266,2.225,12.492,3.085,18.79
	c0.892,6.53,1.604,13.086,2.17,19.653c-16.575-0.77-33.203-0.77-49.778,0c1.114-12.885,2.762-25.749,5.257-38.443
	C237.519,183.638,263.743,182.746,274.734,183.841z M292.777,186.514c10.807,2.144,21.402,5.293,31.573,9.529
	c4.288,10.298,7.45,21.019,9.6,31.963c-12.221-2.144-24.559-3.636-36.925-4.638c-1.011-12.365-2.488-24.703-4.637-36.925
	C292.517,186.468,292.647,186.488,292.777,186.514z M298.59,290.14c-0.161,0.013-0.322,0.028-0.483,0.042
	c0.77-16.576,0.771-33.202,0-49.778c12.886,1.12,25.749,2.761,38.445,5.257c1.325,13.026,1.325,26.24,0,39.266
	c-4.243,0.823-8.602,1.233-12.88,1.825c-6.641,0.918-13.284,1.831-19.93,2.721C302.03,289.701,300.311,289.988,298.59,290.14
	C298.43,290.153,300.14,290.004,298.59,290.14z M279.354,291.421c-16.753,0.779-33.547,0.752-50.298-0.086
	c-0.883-17.341-0.88-34.745,0-52.086c17.345-0.871,34.744-0.871,52.089,0c0.88,17.341,0.883,34.745,0,52.086
	C280.548,291.365,279.952,291.392,279.354,291.421C277.182,291.522,279.781,291.4,279.354,291.421z M206.983,289.711
	c-11.165-1.116-22.327-2.584-33.335-4.785c-1.299-13.038-1.316-26.228,0-39.266c12.696-2.495,25.559-4.137,38.444-5.257
	c-0.77,16.576-0.77,33.202,0,49.778C210.389,290.034,208.686,289.879,206.983,289.711
	C206.92,289.704,208.516,289.862,206.983,289.711z M262.603,145.436c3.617,6.61,6.009,13.882,8.053,21.106
	c-10.35-0.751-20.762-0.752-31.112,0c2.238-7.981,4.917-16.185,9.312-23.27c1.317-2.123,2.911-4.538,5.092-5.878
	c0.971-0.598,1.589-0.487,2.523,0.145C259.196,139.38,261.067,142.631,262.603,145.436
	C262.924,146.023,258.787,138.465,262.603,145.436z M247.598,385.148c-3.615-6.605-6.021-13.882-8.053-21.106
	c10.349,0.75,20.763,0.748,31.113,0c-2.24,7.923-4.876,16.045-9.21,23.104c-1.331,2.169-2.935,4.62-5.14,6.011
	c-0.964,0.609-1.576,0.555-2.522-0.072C251.029,391.257,249.14,387.965,247.598,385.148
	C247.275,384.557,251.415,392.12,247.598,385.148z M366.237,201.476c-8.865-7.181-18.734-13.441-29.064-18.255
	c-4.813-10.33-16.087-26.907-17.921-29.073C350.91,171.506,366.254,201.476,366.237,201.476z M143.957,329.443
	c8.864,7.181,18.74,13.11,29.072,17.921c4.807,10.331,10.74,20.211,17.921,29.072C171.484,365.158,155.236,348.908,143.957,329.443z
	 M319.252,376.435c7.181-8.86,13.113-18.74,17.921-29.072c10.331-4.811,20.208-10.74,29.072-17.921
	C354.966,348.908,338.716,365.158,319.252,376.435C319.403,376.25,319.25,376.435,319.252,376.435z"/>
<path d="M255.1,421.202c-4.948,0-8.961,4.011-8.961,8.961v72.877c0,4.882,4.077,8.961,8.961,8.961s8.961-4.077,8.961-8.961v-72.877
	C264.061,425.214,260.049,421.202,255.1,421.202z"/>
<path d="M496.436,255.735h-72.877c-4.882,0-8.961,4.077-8.961,8.961c0,4.882,4.077,8.961,8.961,8.961h72.877
	c4.882,0,8.961-4.077,8.961-8.961C505.396,259.812,501.319,255.735,496.436,255.735z"/>
<path d="M97.402,264.694c0-4.95-4.012-8.961-8.961-8.961H15.564c-4.882,0-8.961,4.077-8.961,8.961c0,4.882,4.077,8.961,8.961,8.961
	h72.877C93.39,273.655,97.402,269.644,97.402,264.694z"/>
<path d="M390.125,378.684c-3.452-3.451-9.219-3.452-12.672,0c-3.454,3.453-3.452,9.22,0,12.673l51.533,51.533
	c3.68,3.679,9.888,3.383,13.221-0.603c2.934-3.51,2.681-8.839-0.549-12.069L390.125,378.684z"/>
<path d="M120.077,374.339l-51.533,51.533c-3.236,3.236-3.476,8.553-0.549,12.07c3.326,3.994,9.547,4.277,13.221,0.603l51.533-51.533
	c3.453-3.453,3.453-9.219,0-12.672C129.296,370.887,123.528,370.888,120.077,374.339z"/>
</svg>